<?xml version="1.0" encoding="UTF-8" standalone="no"?>
<svg
   width="1024"
   height="768"
   version="1.1"
   id="svg7868"
   sodipodiDocname="image.svg"
   inkscapeVersion="1.2 (dc2aedaf03, 2022-05-15)"
   xmlnsInkscape="http://www.inkscape.org/namespaces/inkscape"
   xmlnsSodipodi="http://sodipodi.sourceforge.net/DTD/sodipodi-0.dtd"
   xmlns="http://www.w3.org/2000/svg"
   xmlnsSvg="http://www.w3.org/2000/svg">
  <defs
     id="defs7872" />
  <sodipodi:namedview
     id="namedview7870"
     pagecolor="#ffffff"
     bordercolor="#cccccc"
     borderopacity="1"
     inkscapeShowpageshadow="0"
     inkscapePageopacity="1"
     inkscapePagecheckerboard="0"
     inkscapeDeskcolor="#d1d1d1"
     showgrid="false"
     inkscapeZoom="0.53971354"
     inkscapeCx="183.43064"
     inkscapeCy="481.73703"
     inkscapeWindow-width="1920"
     inkscapeWindow-height="1009"
     inkscapeWindow-x="1912"
     inkscapeWindow-y="-8"
     inkscapeWindow-maximized="1"
     inkscapeCurrent-layer="svg7868" />
  <g
     style="font-style:normal;font-weight:400;font-size:72px;line-height:1;font-family:'Brandmark Script 8 Shadow';font-variant-ligatures:normal;text-align:center;text-anchor:middle"
     id="g7866"
     transform="matrix(2.5587963,0,0,2.5587963,-796.2552,-595.84409)">
    <g
       aria-label="~S"
       transform="matrix(1.89,0,0,1.89,-473.62,412.577)"
       id="g7699">
      <path
         fill="#c55574"
         d="m 465.446,-12.884 c -1.01,1.727 -2.593,2.52 -5.185,2.303 -0.288,0 -0.648,-0.072 -0.937,-0.143 0.36,-4.609 -2.591,-8.281 -6.12,-11.45 5.185,-2.52 7.993,-6.409 7.993,-10.008 0,-4.32 -3.096,-8.137 -8.569,-8.137 -5.76,0 -8.856,3.528 -9.793,7.2 -0.648,2.664 -0.36,5.473 1.512,8.497 -1.44,0.216 -3.096,0.289 -4.824,0.289 -7.345,0 -16.13,-3.24 -16.13,-10.801 0,-3.6 2.953,-7.345 7.129,-7.345 2.377,0 4.249,1.656 4.249,3.816 0,1.8 -1.296,3.168 -2.809,3.168 -0.935,0 -2.088,-0.504 -2.592,-1.007 l -2.952,3.383 c 1.008,1.296 3.312,2.52 5.76,2.52 4.393,0 7.633,-4.104 7.633,-8.208 0,-5.328 -4.105,-8.713 -9.36,-8.713 -6.986,0 -12.098,5.905 -12.098,12.386 0,8.712 8.497,15.697 21.314,15.697 3.096,0 5.832,-0.36 8.28,-0.937 l 0.504,0.504 c 2.953,2.737 5.113,4.826 5.618,7.417 a 32.667,32.667 0 0 0 -6.265,-2.16 c -5.977,-1.368 -12.53,-0.288 -13.898,4.105 -1.728,5.472 3.168,11.088 12.242,11.088 4.752,0 9.648,-2.088 12.024,-6.985 0.505,0.144 1.009,0.288 1.513,0.36 4.969,0.864 8.497,-1.512 9.936,-5.832 l -4.175,-1.008 z m -15.842,-13.033 c -2.017,-2.666 -2.088,-4.538 -1.8,-5.977 0.36,-1.729 1.944,-3.6 4.824,-3.6 1.872,0 3.528,1.368 3.528,2.952 0,2.16 -2.016,4.896 -6.552,6.625 z m -4.032,21.601 c -4.393,0 -7.345,-2.592 -6.985,-4.177 0.36,-1.511 3.456,-2.448 7.92,-1.584 2.665,0.504 4.897,1.296 6.913,2.017 -1.296,2.448 -4.104,3.744 -7.849,3.744 z"
         class="c1"
         id="path7669" />
      <linearGradient
         id="a"
         x1="105.982"
         x2="101.941"
         y1="111.057"
         y2="118.522"
         gradientUnits="userSpaceOnUse">
        <stop
           offset="0"
           style="stop-color:#000"
           id="stop7671" />
        <stop
           offset=".915"
           style="stop-color:#000;stop-opacity:0"
           id="stop7673" />
      </linearGradient>
      <path
         fill="url(#a)"
         d="m 109.433,117.138 c -1.296,2.448 -4.104,3.744 -7.848,3.744 -3.151,0 -5.561,-1.334 -6.538,-2.673 h -5.343 c 0.806,4.123 5.35,7.57 12.457,7.57 4.752,0 9.648,-2.089 12.024,-6.985 -1.209,-0.334 -3.186,-1.082 -4.752,-1.656 z"
         class="highlight"
         opacity="0.43"
         transform="translate(343.987,-125.198)"
         id="path7676"
         style="fill:url(#a)" />
      <linearGradient
         id="b"
         x1="107.526"
         x2="110.075"
         y1="116.547"
         y2="108.265"
         gradientUnits="userSpaceOnUse">
        <stop
           offset=".056"
           style="stop-color:#000"
           id="stop7678" />
        <stop
           offset="1"
           style="stop-color:#000;stop-opacity:0"
           id="stop7680" />
      </linearGradient>
      <path
         fill="url(#b)"
         d="m 110.082,112.745 c 1.628,0.671 3.577,1.325 5.255,1.729 0.36,-4.609 -2.591,-8.282 -6.12,-11.45 l -5.257,1.8 0.504,0.504 c 2.953,2.736 5.113,4.825 5.618,7.417 z"
         class="highlight"
         opacity="0.43"
         transform="translate(343.987,-125.198)"
         id="path7683"
         style="fill:url(#b)" />
      <linearGradient
         id="c"
         x1="102.666"
         x2="93.806"
         y1="96.474998"
         y2="103.562"
         gradientUnits="userSpaceOnUse">
        <stop
           offset=".079"
           style="stop-color:#000"
           id="stop7685" />
        <stop
           offset=".854"
           style="stop-color:#000;stop-opacity:0"
           id="stop7687" />
      </linearGradient>
      <path
         fill="url(#c)"
         d="m 100.36,100.576 c -1.44,0.216 -3.096,0.288 -4.824,0.288 -2.75,0 -5.7,-0.453 -8.316,-1.418 l -0.592,4.99 c 2.676,0.853 5.718,1.325 9.052,1.325 3.096,0 5.832,-0.36 8.28,-0.937 a 24.134,24.134 0 0 1 -3.6,-4.248 z"
         class="highlight"
         opacity="0.43"
         transform="translate(343.987,-125.198)"
         id="path7690"
         style="fill:url(#c)" />
      <linearGradient
         id="d"
         x1="101.939"
         x2="109.375"
         y1="101.667"
         y2="94.957001"
         gradientUnits="userSpaceOnUse">
        <stop
           offset=".056"
           style="stop-color:#000"
           id="stop7692" />
        <stop
           offset=".89"
           style="stop-color:#000;stop-opacity:0"
           id="stop7694" />
      </linearGradient>
      <path
         fill="url(#d)"
         d="m 110.45,85.028 v 5.12 c 1.011,0.53 1.72,1.473 1.72,2.507 0,2.16 -2.017,4.897 -6.553,6.625 a 35.877,35.877 0 0 0 3.6,3.744 c 5.185,-2.52 7.993,-6.409 7.993,-10.008 0,-3.819 -2.42,-7.244 -6.76,-7.988 z"
         class="highlight"
         opacity="0.43"
         transform="translate(343.987,-125.198)"
         id="path7697"
         style="fill:url(#d)" />
    </g>
    <g
       aria-label="e"
       transform="matrix(1.89,0,0,1.89,-473.62,412.577)"
       id="g7710">
      <path
         fill="#c55574"
         d="m 483.56,-12.887 c -2.952,7.345 -7.992,9.001 -10.513,9.001 -1.584,0 -3.816,-1.296 -3.816,-4.249 4.969,-0.432 11.882,-3.168 12.89,-9 0.288,-1.729 0.072,-3.313 -1.153,-4.68 -1.008,-1.153 -2.664,-1.801 -4.608,-1.801 -7.705,0 -11.737,8.713 -11.881,14.905 -0.144,5.113 3.096,9.29 8.209,9.29 3.456,0 10.297,-1.225 15.121,-12.458 l -4.248,-1.008 z m -11.017,-4.32 c 1.08,-1.224 3.168,-2.664 4.753,-1.657 0.432,0.289 0.648,0.792 0.648,1.153 0,2.376 -4.536,4.608 -7.92,5.04 a 13.493,13.493 0 0 1 2.52,-4.536 z"
         class="c1"
         id="path7701" />
      <linearGradient
         id="e"
         x1="88.945"
         x2="97.931"
         y1="112.049"
         y2="112.29"
         gradientUnits="userSpaceOnUse">
        <stop
           offset=".056"
           style="stop-color:#000"
           id="stop7703" />
        <stop
           offset="1"
           style="stop-color:#000;stop-opacity:0"
           id="stop7705" />
      </linearGradient>
      <path
         fill="url(#e)"
         d="m 93.09,117.065 c 4.968,-0.432 11.881,-3.168 12.889,-9 l -4.177,-0.576 c 0,2.376 -4.536,4.608 -7.92,5.04 -0.502,1.461 -0.788,2.969 -0.792,4.536 z"
         class="highlight"
         opacity="0.43"
         transform="translate(376.142,-125.2)"
         id="path7708"
         style="fill:url(#e)" />
    </g>
    <g
       aria-label="e"
       transform="matrix(1.89,0,0,1.89,-473.62,412.577)"
       id="g7721">
      <path
         fill="#c55574"
         d="m 501.842,-12.887 c -2.953,7.345 -7.993,9.001 -10.514,9.001 -1.583,0 -3.815,-1.296 -3.815,-4.249 4.968,-0.432 11.88,-3.168 12.889,-9 0.288,-1.729 0.072,-3.313 -1.153,-4.68 -1.007,-1.153 -2.664,-1.801 -4.608,-1.801 -7.705,0 -11.737,8.713 -11.88,14.905 -0.145,5.113 3.095,9.29 8.208,9.29 3.456,0 10.297,-1.225 15.121,-12.458 z m -11.017,-4.32 c 1.08,-1.224 3.168,-2.664 4.753,-1.657 0.431,0.289 0.647,0.792 0.647,1.153 0,2.376 -4.536,4.608 -7.92,5.04 a 13.493,13.493 0 0 1 2.52,-4.536 z"
         class="c1"
         id="path7712" />
      <linearGradient
         id="f"
         x1="88.945"
         x2="97.931"
         y1="112.049"
         y2="112.29"
         gradientUnits="userSpaceOnUse">
        <stop
           offset=".056"
           style="stop-color:#000"
           id="stop7714" />
        <stop
           offset="1"
           style="stop-color:#000;stop-opacity:0"
           id="stop7716" />
      </linearGradient>
      <path
         fill="url(#f)"
         d="m 93.09,117.065 c 4.968,-0.432 11.881,-3.168 12.889,-9 l -4.177,-0.576 c 0,2.376 -4.536,4.608 -7.92,5.04 -0.502,1.461 -0.788,2.969 -0.792,4.536 z"
         class="highlight"
         opacity="0.43"
         transform="translate(394.423,-125.2)"
         id="path7719"
         style="fill:url(#f)" />
    </g>
    <g
       aria-label="k"
       transform="matrix(1.89,0,0,1.89,-473.62,412.577)"
       id="g7753">
      <path
         fill="#c55574"
         d="m 514.146,-3.884 c -2.952,0 -4.176,-3.96 -4.463,-5.257 9.576,-3.024 11.592,-8.353 10.008,-11.665 -1.008,-2.088 -3.096,-2.808 -4.753,-2.808 -2.448,0 -4.463,1.296 -6.264,3.024 0.72,-2.808 1.584,-5.617 2.808,-8.28 1.872,0.863 4.105,1.8 7.273,1.8 4.896,0 8.497,-2.81 8.425,-6.913 -0.073,-3.816 -3.529,-6.337 -7.921,-6.337 -4.032,0 -7.2,2.232 -9.72,5.76 -2.88,-0.935 -5.905,-1.08 -8.786,-0.143 l 1.297,4.032 c 2.015,-0.432 3.456,-0.288 5.112,0.144 -1.08,2.232 -1.944,4.752 -2.664,7.489 l -6.265,23.042 h 4.825 l 2.087,-7.777 c 0.937,3.816 4.25,8.353 8.641,8.353 5.977,0 9.65,-4.608 12.314,-12.457 l -4.248,-1.008 c -2.449,7.2 -5.114,9 -7.706,9 z M 519.62,-36 c 1.872,0 3.168,1.008 3.168,2.16 0,1.296 -1.224,2.592 -3.96,2.592 -1.728,0 -3.385,-0.648 -5.04,-1.44 1.584,-2.016 3.456,-3.312 5.832,-3.312 z m -12.817,23.402 c 2.448,-4.393 7.344,-7.633 8.57,-6.193 0.862,1.008 -1.298,4.465 -8.57,6.193 z"
         class="c1"
         id="path7723" />
      <linearGradient
         id="g"
         x1="97.471001"
         x2="95.426003"
         y1="93.483002"
         y2="99.181"
         gradientUnits="userSpaceOnUse">
        <stop
           offset=".056"
           style="stop-color:#000"
           id="stop7725" />
        <stop
           offset="1"
           style="stop-color:#000;stop-opacity:0"
           id="stop7727" />
      </linearGradient>
      <path
         fill="url(#g)"
         d="m 94.455,94.671 c -1.08,2.233 -1.944,4.753 -2.664,7.49 l -1.719,6.32 4.936,-0.389 0.959,-3.484 c 0.72,-2.808 1.584,-5.616 2.808,-8.28 -1.33,-0.657 -2.821,-1.29 -4.32,-1.657 z"
         class="highlight"
         opacity="0.43"
         transform="translate(412.707,-125.198)"
         id="path7730"
         style="fill:url(#g)" />
      <linearGradient
         id="h"
         x1="99.32"
         x2="102.457"
         y1="96.021004"
         y2="88.519997"
         gradientUnits="userSpaceOnUse">
        <stop
           offset=".056"
           style="stop-color:#000"
           id="stop7732" />
        <stop
           offset="1"
           style="stop-color:#000;stop-opacity:0"
           id="stop7734" />
      </linearGradient>
      <path
         fill="url(#h)"
         d="m 106.552,84.878 c -4.033,0 -7.2,2.233 -9.721,5.761 1.303,0.418 3.169,1.305 4.248,1.872 1.585,-2.016 3.457,-3.312 5.833,-3.312 l -0.36,-4.32 z"
         class="highlight"
         opacity="0.43"
         transform="translate(412.707,-125.198)"
         id="path7737"
         style="fill:url(#h)" />
      <linearGradient
         id="i"
         x1="91.139"
         x2="99.335999"
         y1="111.251"
         y2="113.15"
         gradientUnits="userSpaceOnUse">
        <stop
           offset="0"
           style="stop-color:#000"
           id="stop7739" />
        <stop
           offset="1"
           style="stop-color:#000;stop-opacity:0"
           id="stop7741" />
      </linearGradient>
      <path
         fill="url(#i)"
         d="m 104.552,120.23 c -1.037,0.799 -2.08,1.084 -3.113,1.084 -2.952,0 -4.176,-3.96 -4.463,-5.257 9.576,-3.024 11.592,-8.352 10.008,-11.664 -1.008,-2.089 -3.096,-2.809 -4.753,-2.809 -2.448,0 -4.463,1.296 -6.264,3.024 l -3.529,12.817 c 0.937,3.817 4.25,8.353 8.641,8.353 2.702,0 4.932,-0.941 6.812,-2.698 l -3.34,-2.85 z m -10.457,-7.629 c 2.448,-4.393 7.344,-7.633 8.569,-6.192 0.863,1.007 -1.297,4.464 -8.57,6.192 z"
         class="highlight"
         opacity="0.43"
         transform="translate(412.707,-125.198)"
         id="path7744"
         style="fill:url(#i)" />
      <linearGradient
         id="j"
         x1="93.297997"
         x2="97.944"
         y1="106.544"
         y2="122.926"
         gradientUnits="userSpaceOnUse">
        <stop
           offset=".097"
           style="stop-color:#000"
           id="stop7746" />
        <stop
           offset=".878"
           style="stop-color:#000;stop-opacity:0"
           id="stop7748" />
      </linearGradient>
      <path
         fill="url(#j)"
         d="m 101.44,121.314 c -2.953,0 -4.177,-3.96 -4.464,-5.257 -1.254,0.446 -3.388,0.81 -4.387,0.821 l -0.15,0.547 c 0.936,3.817 4.248,8.353 8.64,8.353 l 0.36,-4.464 z"
         class="highlight"
         opacity="0.43"
         transform="translate(412.707,-125.198)"
         id="path7751"
         style="fill:url(#j)" />
    </g>
    <g
       aria-label="s"
       transform="matrix(1.89,0,0,1.89,-473.62,412.577)"
       id="g7771">
      <path
         fill="#c55574"
         d="m 540.164,-11.879 -4.249,-1.008 c -0.935,2.808 -2.664,4.824 -5.04,6.48 -2.88,-5.256 -6.264,-8.496 -5.472,-10.944 0.432,-1.513 1.944,-2.089 3.168,-1.657 1.08,0.36 1.44,1.585 1.44,1.945 l 3.6,-1.368 c -0.072,-0.792 -0.431,-1.945 -1.08,-2.88 -1.08,-1.513 -2.88,-2.305 -4.824,-2.305 -3.528,0 -5.905,2.088 -6.697,5.113 -1.44,5.616 3.528,9.865 5.977,14.329 -1.152,0.576 -2.449,1.152 -3.745,1.728 -6.336,2.808 -7.776,5.905 -7.2,8.64 0.576,2.593 3.096,4.609 6.553,4.609 5.976,0 11.448,-5.76 9.936,-12.961 2.88,-2.016 5.905,-4.464 7.633,-9.72 z M 523.314,6.34 c -1.44,0.288 -2.52,-0.072 -2.663,-0.864 -0.145,-0.649 0.143,-1.729 2.952,-3.169 1.584,-0.792 3.095,-1.44 4.608,-2.088 -0.072,3.745 -3.385,5.832 -4.896,6.12 z"
         class="c1"
         id="path7755" />
      <linearGradient
         id="k"
         x1="103.942"
         x2="98.959999"
         y1="123.623"
         y2="115.831"
         gradientUnits="userSpaceOnUse">
        <stop
           offset=".14"
           style="stop-color:#000"
           id="stop7757" />
        <stop
           offset="1"
           style="stop-color:#000;stop-opacity:0"
           id="stop7759" />
      </linearGradient>
      <path
         fill="url(#k)"
         d="m 102.83,118.793 c -2.88,-5.256 -6.265,-8.496 -5.473,-10.944 l -4.392,-1.152 c -1.44,5.616 3.528,9.865 5.976,14.329 1.339,-0.634 3.286,-1.754 3.889,-2.233 z"
         class="highlight"
         opacity="0.43"
         transform="translate(428.045,-125.2)"
         id="path7762"
         style="fill:url(#k)" />
      <linearGradient
         id="l"
         x1="96.058998"
         x2="99.635002"
         y1="124.025"
         y2="129.709"
         gradientUnits="userSpaceOnUse">
        <stop
           offset=".151"
           style="stop-color:#000"
           id="stop7764" />
        <stop
           offset="1"
           style="stop-color:#000;stop-opacity:0"
           id="stop7766" />
      </linearGradient>
      <path
         fill="url(#l)"
         d="m 100.166,125.418 c -0.072,3.745 -3.385,5.832 -4.896,6.12 l -0.72,4.465 c 5.976,0 11.448,-5.76 9.936,-12.961 -0.945,0.747 -3.038,1.847 -4.32,2.376 z"
         class="highlight"
         opacity="0.43"
         transform="translate(428.045,-125.2)"
         id="path7769"
         style="fill:url(#l)" />
    </g>
    <g
       aria-label="p"
       transform="matrix(1.89,0,0,1.89,-473.62,412.577)"
       id="g7803">
      <path
         fill="#c55574"
         d="m 557.971,-12.887 c -0.936,2.592 -2.592,3.528 -4.536,3.888 1.872,-5.904 1.944,-14.617 -4.608,-14.617 -1.945,0 -4.177,1.08 -6.193,2.809 l 0.576,-2.233 h -4.825 l -10.8,40.324 h 4.824 l 5.257,-19.514 c 0.935,1.728 3.312,2.808 5.328,2.808 3.312,0 6.264,-1.728 8.352,-4.968 5.4,0 9.001,-2.16 10.873,-7.489 z m -14.113,9.433 c -1.008,0.144 -1.944,-0.072 -1.944,-0.504 0,-0.36 0.72,-0.576 1.728,-0.576 0.792,0 1.512,0 2.304,0.072 -0.72,0.576 -1.44,0.936 -2.088,1.008 z m 5.112,-6.769 c -0.143,0.504 -0.215,0.864 -0.36,1.296 -2.088,-0.072 -4.176,-0.144 -5.832,0.145 -1.729,0.36 -2.952,0.863 -3.816,1.512 l 1.007,-3.673 c 1.08,-3.96 5.689,-9.072 8.57,-8.209 1.727,0.505 1.656,4.249 0.431,8.93 z"
         class="c1"
         id="path7773" />
      <linearGradient
         id="m"
         x1="105.722"
         x2="106.286"
         y1="119.791"
         y2="112.338"
         gradientUnits="userSpaceOnUse">
        <stop
           offset="0"
           style="stop-color:#000"
           id="stop7775" />
        <stop
           offset="1"
           style="stop-color:#000;stop-opacity:0"
           id="stop7777" />
      </linearGradient>
      <path
         fill="url(#m)"
         d="m 103.637,106.048 c 1.727,0.505 1.656,4.249 0.431,8.929 -0.143,0.504 -0.215,0.864 -0.36,1.296 1.607,0.01 3.919,0.089 4.825,-0.072 1.872,-5.904 1.944,-14.617 -4.608,-14.617 z"
         class="highlight"
         opacity="0.43"
         transform="translate(444.902,-125.2)"
         id="path7780"
         style="fill:url(#m)" />
      <linearGradient
         id="n"
         x1="94.697998"
         x2="101.395"
         y1="106.416"
         y2="107.968"
         gradientUnits="userSpaceOnUse">
        <stop
           offset="0"
           style="stop-color:#000"
           id="stop7782" />
        <stop
           offset="1"
           style="stop-color:#000;stop-opacity:0"
           id="stop7784" />
      </linearGradient>
      <path
         fill="url(#n)"
         d="m 103.637,106.048 c 1.222,0.357 1.544,2.334 1.194,5.117 l 4.734,-0.182 c 0.388,-4.787 -0.873,-9.399 -5.64,-9.399 -1.945,0 -4.177,1.08 -6.193,2.809 l -2.488,9.293 c 1.337,-3.861 5.648,-8.46 8.393,-7.638 z"
         class="highlight"
         opacity="0.43"
         transform="translate(444.902,-125.2)"
         id="path7787"
         style="fill:url(#n)" />
      <linearGradient
         id="o"
         x1="91.523003"
         x2="98.468002"
         y1="118.34"
         y2="119.949"
         gradientUnits="userSpaceOnUse">
        <stop
           offset="0"
           style="stop-color:#000"
           id="stop7789" />
        <stop
           offset="1"
           style="stop-color:#000;stop-opacity:0"
           id="stop7791" />
      </linearGradient>
      <path
         fill="url(#o)"
         d="m 103.708,116.273 c -2.088,-0.072 -4.176,-0.144 -5.832,0.144 -1.729,0.36 -2.952,0.864 -3.816,1.513 l -1.296,5.04 c 0.935,1.728 3.312,2.808 5.328,2.808 3.312,0 6.264,-1.728 8.352,-4.968 l 2.09,-4.609 c -0.907,0.16 -3.22,0.083 -4.826,0.072 z m -4.752,5.473 c -1.008,0.144 -1.944,-0.072 -1.944,-0.504 0,-0.36 0.72,-0.576 1.728,-0.576 0.792,0 1.512,0 2.304,0.072 -0.72,0.576 -1.44,0.936 -2.088,1.008 z"
         class="highlight"
         opacity="0.43"
         transform="translate(444.902,-125.2)"
         id="path7794"
         style="fill:url(#o)" />
      <linearGradient
         id="p"
         x1="100.589"
         x2="99.572998"
         y1="117.894"
         y2="122.015"
         gradientUnits="userSpaceOnUse">
        <stop
           offset="0"
           style="stop-color:#000"
           id="stop7796" />
        <stop
           offset="1"
           style="stop-color:#000;stop-opacity:0"
           id="stop7798" />
      </linearGradient>
      <path
         fill="url(#p)"
         d="m 101.044,120.738 c -0.614,0.5 -1.423,0.951 -2.088,1.008 -0.364,0.052 -0.72,0.057 -1.024,0.021 l -5.168,1.203 c 0.935,1.728 3.312,2.808 5.328,2.808 3.312,0 6.264,-1.728 8.352,-4.968 -1.547,0.082 -3.502,0.063 -5.4,-0.072 z"
         class="highlight"
         opacity="0.43"
         transform="translate(444.902,-125.2)"
         id="path7801"
         style="fill:url(#p)" />
    </g>
    <g
       aria-label="e"
       transform="matrix(1.89,0,0,1.89,-473.62,412.577)"
       id="g7814">
      <path
         fill="#c55574"
         d="m 576.233,-12.887 c -2.953,7.345 -7.993,9.001 -10.514,9.001 -1.584,0 -3.816,-1.296 -3.816,-4.249 4.968,-0.432 11.882,-3.168 12.89,-9 0.287,-1.729 0.072,-3.313 -1.153,-4.68 -1.008,-1.153 -2.664,-1.801 -4.608,-1.801 -7.705,0 -11.737,8.713 -11.881,14.905 -0.144,5.113 3.096,9.29 8.209,9.29 3.456,0 10.297,-1.225 15.12,-12.458 z m -11.018,-4.32 c 1.08,-1.224 3.168,-2.664 4.753,-1.657 0.432,0.289 0.648,0.792 0.648,1.153 0,2.376 -4.537,4.608 -7.92,5.04 a 13.493,13.493 0 0 1 2.52,-4.536 z"
         class="c1"
         id="path7805" />
      <linearGradient
         id="q"
         x1="88.945"
         x2="97.931"
         y1="112.049"
         y2="112.29"
         gradientUnits="userSpaceOnUse">
        <stop
           offset=".056"
           style="stop-color:#000"
           id="stop7807" />
        <stop
           offset="1"
           style="stop-color:#000;stop-opacity:0"
           id="stop7809" />
      </linearGradient>
      <path
         fill="url(#q)"
         d="m 93.09,117.065 c 4.968,-0.432 11.881,-3.168 12.889,-9 l -4.177,-0.576 c 0,2.376 -4.536,4.608 -7.92,5.04 -0.502,1.461 -0.788,2.969 -0.792,4.536 z"
         class="highlight"
         opacity="0.43"
         transform="translate(468.813,-125.2)"
         id="path7812"
         style="fill:url(#q)" />
    </g>
    <g
       aria-label="a"
       transform="matrix(1.89,0,0,1.89,-473.62,412.577)"
       id="g7832">
      <path
         fill="#c55574"
         d="m 599.482,-12.887 c -2.592,7.129 -4.752,9.217 -5.904,9.001 -0.936,-0.144 -0.865,-2.088 -0.288,-4.177 l 4.032,-14.977 h -4.824 l -0.433,1.584 c -1.007,-1.296 -2.52,-2.16 -4.608,-2.16 -4.968,0 -9.073,4.176 -11.161,10.153 -2.52,7.129 -0.72,14.041 5.473,14.041 2.52,0 4.896,-1.368 6.84,-3.312 0.648,1.944 2.52,3.312 4.537,3.312 4.896,0 8.136,-5.4 10.513,-12.457 z m -9.289,-1.656 -0.72,2.664 c -1.584,5.472 -5.256,8.713 -7.704,7.849 -2.089,-0.72 -2.664,-3.672 -0.72,-8.641 1.728,-4.465 4.68,-7.056 7.344,-6.193 1.224,0.433 2.304,2.017 1.8,4.32 z"
         class="c1"
         id="path7816" />
      <linearGradient
         id="r"
         x1="103.257"
         x2="97.806999"
         y1="109.157"
         y2="107.175"
         gradientUnits="userSpaceOnUse">
        <stop
           offset="0"
           style="stop-color:#000"
           id="stop7818" />
        <stop
           offset="1"
           style="stop-color:#000;stop-opacity:0"
           id="stop7820" />
      </linearGradient>
      <path
         fill="url(#r)"
         d="m 102.638,103.744 c -1.007,-1.296 -2.52,-2.16 -4.608,-2.16 -4.355,0 -8.045,3.209 -10.297,8.026 h 5.356 c 1.69,-2.607 3.866,-3.926 5.877,-3.274 1.224,0.433 2.304,2.017 1.8,4.32 z"
         class="highlight"
         opacity="0.43"
         transform="translate(489.427,-125.2)"
         id="path7823"
         style="fill:url(#r)" />
      <linearGradient
         id="s"
         x1="102.129"
         x2="93.861"
         y1="118.572"
         y2="119.841"
         gradientUnits="userSpaceOnUse">
        <stop
           offset="0"
           style="stop-color:#000"
           id="stop7825" />
        <stop
           offset="1"
           style="stop-color:#000;stop-opacity:0"
           id="stop7827" />
      </linearGradient>
      <path
         fill="url(#s)"
         d="m 92.342,121.17 c -1.67,-0.576 -2.373,-2.582 -1.593,-5.903 h -4.782 c -0.892,5.719 1.219,10.511 6.375,10.511 2.52,0 4.896,-1.368 6.84,-3.312 -0.98,-2.613 0.052,-6.318 0.864,-9.145 -1.584,5.472 -5.256,8.713 -7.704,7.849 z"
         class="highlight"
         opacity="0.43"
         transform="translate(489.427,-125.2)"
         id="path7830"
         style="fill:url(#s)" />
    </g>
    <g
       aria-label="k"
       transform="matrix(1.89,0,0,1.89,-473.62,412.577)"
       id="g7864">
      <path
         fill="#c55574"
         d="m 611.6,-3.884 c -2.953,0 -4.177,-3.96 -4.464,-5.257 9.576,-3.024 11.592,-8.353 10.009,-11.665 -1.01,-2.088 -3.097,-2.808 -4.753,-2.808 -2.449,0 -4.464,1.296 -6.265,3.024 0.72,-2.808 1.584,-5.617 2.809,-8.28 1.872,0.863 4.104,1.8 7.272,1.8 4.896,0 8.497,-2.81 8.425,-6.913 -0.072,-3.816 -3.529,-6.337 -7.921,-6.337 -4.032,0 -7.2,2.232 -9.72,5.76 -2.88,-0.935 -5.905,-1.08 -8.786,-0.143 l 1.297,4.032 c 2.016,-0.432 3.456,-0.288 5.112,0.144 -1.08,2.232 -1.944,4.752 -2.664,7.489 l -6.264,23.042 h 4.824 l 2.088,-7.777 c 0.936,3.816 4.249,8.353 8.64,8.353 5.977,0 9.65,-4.608 12.314,-12.457 l -4.248,-1.008 c -2.449,7.2 -5.114,9 -7.705,9 z M 617.072,-36 c 1.872,0 3.168,1.008 3.168,2.16 0,1.296 -1.223,2.592 -3.96,2.592 -1.728,0 -3.385,-0.648 -5.04,-1.44 1.584,-2.016 3.456,-3.312 5.832,-3.312 z m -12.817,23.402 c 2.448,-4.393 7.345,-7.633 8.57,-6.193 0.862,1.008 -1.298,4.465 -8.57,6.193 z"
         class="c1"
         id="path7834" />
      <linearGradient
         id="t"
         x1="97.471001"
         x2="95.426003"
         y1="93.483002"
         y2="99.181"
         gradientUnits="userSpaceOnUse">
        <stop
           offset=".056"
           style="stop-color:#000"
           id="stop7836" />
        <stop
           offset="1"
           style="stop-color:#000;stop-opacity:0"
           id="stop7838" />
      </linearGradient>
      <path
         fill="url(#t)"
         d="m 94.455,94.671 c -1.08,2.233 -1.944,4.753 -2.664,7.49 l -1.719,6.32 4.936,-0.389 0.959,-3.484 c 0.72,-2.808 1.584,-5.616 2.808,-8.28 -1.33,-0.657 -2.821,-1.29 -4.32,-1.657 z"
         class="highlight"
         opacity="0.43"
         transform="translate(510.16,-125.198)"
         id="path7841"
         style="fill:url(#t)" />
      <linearGradient
         id="u"
         x1="99.32"
         x2="102.457"
         y1="96.021004"
         y2="88.519997"
         gradientUnits="userSpaceOnUse">
        <stop
           offset=".056"
           style="stop-color:#000"
           id="stop7843" />
        <stop
           offset="1"
           style="stop-color:#000;stop-opacity:0"
           id="stop7845" />
      </linearGradient>
      <path
         fill="url(#u)"
         d="m 106.552,84.878 c -4.033,0 -7.2,2.233 -9.721,5.761 1.303,0.418 3.169,1.305 4.248,1.872 1.585,-2.016 3.457,-3.312 5.833,-3.312 l -0.36,-4.32 z"
         class="highlight"
         opacity="0.43"
         transform="translate(510.16,-125.198)"
         id="path7848"
         style="fill:url(#u)" />
      <linearGradient
         id="v"
         x1="91.139"
         x2="99.335999"
         y1="111.251"
         y2="113.15"
         gradientUnits="userSpaceOnUse">
        <stop
           offset="0"
           style="stop-color:#000"
           id="stop7850" />
        <stop
           offset="1"
           style="stop-color:#000;stop-opacity:0"
           id="stop7852" />
      </linearGradient>
      <path
         fill="url(#v)"
         d="m 104.552,120.23 c -1.037,0.799 -2.08,1.084 -3.113,1.084 -2.952,0 -4.176,-3.96 -4.463,-5.257 9.576,-3.024 11.592,-8.352 10.008,-11.664 -1.008,-2.089 -3.096,-2.809 -4.753,-2.809 -2.448,0 -4.463,1.296 -6.264,3.024 l -3.529,12.817 c 0.937,3.817 4.25,8.353 8.641,8.353 2.702,0 4.932,-0.941 6.812,-2.698 l -3.34,-2.85 z m -10.457,-7.629 c 2.448,-4.393 7.344,-7.633 8.569,-6.192 0.863,1.007 -1.297,4.464 -8.57,6.192 z"
         class="highlight"
         opacity="0.43"
         transform="translate(510.16,-125.198)"
         id="path7855"
         style="fill:url(#v)" />
      <linearGradient
         id="w"
         x1="93.297997"
         x2="97.944"
         y1="106.544"
         y2="122.926"
         gradientUnits="userSpaceOnUse">
        <stop
           offset=".097"
           style="stop-color:#000"
           id="stop7857" />
        <stop
           offset=".878"
           style="stop-color:#000;stop-opacity:0"
           id="stop7859" />
      </linearGradient>
      <path
         fill="url(#w)"
         d="m 101.44,121.314 c -2.953,0 -4.177,-3.96 -4.464,-5.257 -1.254,0.446 -3.388,0.81 -4.387,0.821 l -0.15,0.547 c 0.936,3.817 4.248,8.353 8.64,8.353 l 0.36,-4.464 z"
         class="highlight"
         opacity="0.43"
         transform="translate(510.16,-125.198)"
         id="path7862"
         style="fill:url(#w)" />
    </g>
  </g>
</svg>
